# xmcd
#
# Track frame offsets:
#	150
#	18758
#	32139
#	52212
#	66187
#	80592
#	96411
#	107694
#	122168
#	137272
#	150017
#	158264
#	173634
#	188826
#	206667
#	219269
#	233109
#	245998
#
# Disc length: 3443 seconds
#
# Revision: 2
# Processed by: cddbd v1.5.2PL0 Copyright (c) Steve Scherf et al.
# Submitted via: audiograbber 1.83.01
#
DISCID=e80d7112
DTITLE=Various Artist - Simply Country - CD 01
DYEAR=1900
DGENRE=
TTITLE0=LeAnn Rimes - How Do I Live
TTITLE1=Dylan Scott - Lay It On Me
TTITLE2=Hal Ketchum - Past The Point Of Rescue
TTITLE3=The Forester Sisters - (That's What You Do) When You Are In Love
TTITLE4=The Judds - Had A Dream (For The Heart)
TTITLE5=Maria Muldaur - My Tennessee Mountain Home
TTITLE6=Carlene Carter - My Dixie Darlin'
TTITLE7=Jeannie C. Riley - Harper Valley P.T.A.
TTITLE8=Deadstring Brothers - Can't Make It Through The Night
TTITLE9=John Michael Montgomery - Be My Baby Tonight
TTITLE10=Jon Langford - Living A Lie
TTITLE11=The Bottle Rockets - The Long Way
TTITLE12=George Jones - Real Deal
TTITLE13=Randy Travis - It's Just A Matter Of Time
TTITLE14=Jimmy Dale and The Flatlanders - Dallas
TTITLE15=Glen Campbell - Tennessee
TTITLE16=Eddie Rabbitt - Every Which Way But Loose
TTITLE17=Johnny Cash - I Walk The Line
EXTD=
EXTT0=
EXTT1=
EXTT2=
EXTT3=
EXTT4=
EXTT5=
EXTT6=
EXTT7=
EXTT8=
EXTT9=
EXTT10=
EXTT11=
EXTT12=
EXTT13=
EXTT14=
EXTT15=
EXTT16=
EXTT17=
PLAYORDER=
